<?xml version="1.0" encoding="UTF-8"?>
<svg id="_レイヤー_2" data-name="レイヤー 2" xmlns="http://www.w3.org/2000/svg" viewBox="0 0 207.97 275.55">
  <defs>
    <style>
      .cls-1 {
        fill: #002823;
      }
    </style>
  </defs>
  <g id="_レイヤー_5" data-name="レイヤー 5">
    <path class="cls-1" d="M205.81,162.68c-1.18-5.07-2.58-9.81-3.49-13.35-.61-2.32-.96-4.23-.94-4.85v-.13c.52-2.5,1.69-6.04,2.76-9.81,1.06-3.79,2.05-7.83,2.06-11.73,0-1.67-.19-3.33-.69-4.93-1.15-3.65-3.26-6.4-5.57-8.24-2.32-1.84-4.78-2.84-7.08-3.04h0c-.36-.03-.72-.04-1.08-.04,1.61-7.46,3.07-16.17,3.07-25.89,0-4.93-.37-10.1-1.29-15.45-1.44-8.48-5.22-14.92-10.06-19.61-7.27-7.04-16.69-10.25-24.47-12.11-3.89-.92-7.4-1.5-10-1.99-1.3-.24-2.37-.46-3.08-.66l-.38-.13c-1.01-2.1-1.87-4.83-2.92-7.86-1.77-5.04-4.22-10.94-9.88-15.47C127.12,2.88,118.6,0,105.44,0c-8.79,0-15.47,1.27-20.66,3.47-7.81,3.28-12.01,8.81-14.47,14.16-2.31,5.01-3.44,9.84-5.04,13.12-.44.14-1.16.34-2.08.51-2.52.51-6.35,1.1-10.69,2.09-6.52,1.51-14.27,3.94-21,8.8-6.73,4.83-12.36,12.27-14.18,23.07-.92,5.35-1.29,10.51-1.29,15.43,0,9.29,1.34,17.65,2.85,24.89-.86-.11-1.76-.2-2.69-.21-.35,0-.71.01-1.08.04h0c-2.29.19-4.75,1.2-7.08,3.04-2.31,1.84-4.41,4.59-5.57,8.24-.5,1.6-.69,3.26-.69,4.93,0,3.9.99,7.94,2.06,11.73,1.07,3.77,2.24,7.31,2.76,9.81v.13c.03.62-.33,2.53-.93,4.85-.9,3.54-2.31,8.27-3.49,13.35-1.18,5.08-2.15,10.5-2.16,15.6,0,.59.01,1.17.04,1.75.13,2.74.85,5.37,2.23,7.61.1.17.44.67.5.76,1.52,2.12,3.77,3.78,6.5,4.47.11.03.71.15.83.17.6.1,1.18.19,1.73.28-.2,2.44-.35,4.91-.38,7.4,0,.24,0,1.72,0,1.72,0,0,0,.74.02,1.1.13,5.56.79,11.23,2.17,16.98.56,2.37,1.09,4.37,1.88,6.77.16.5.93,2.45,1.08,2.76,3.63,7.67,7.57,13.14,11.91,17.16,6.79,6.29,14.37,8.76,22.32,10.83,7.99,2.08,16.51,3.82,26.13,8.42,5.52,2.64,8.81,5.07,12.78,7.06,3.97,2,8.52,3.27,15.48,3.25h-.02.5c6.93.03,11.48-1.25,15.44-3.25,3.97-1.99,7.26-4.42,12.78-7.06,12.8-6.15,23.7-7.17,33.93-10.75,5.09-1.8,10-4.32,14.51-8.5,4.52-4.18,8.61-9.94,12.36-18.11l.06-.13.04-.12c1.1-3.14,1.73-5.46,2.41-8.33,1.4-5.83,2.06-11.57,2.17-17.21,0-.28.02-2.79,0-3.25-.04-2.05-.17-4.08-.34-6.1,2.56-.75,4.68-2.32,6.12-4.34.06-.09.4-.59.5-.76,1.38-2.24,2.1-4.87,2.23-7.61.03-.58.04-1.17.04-1.75,0-5.09-.98-10.51-2.16-15.6ZM12.48,186.4c-.53-.09-1.08-.18-1.65-.27-1.52-.36-2.63-1.17-3.53-2.46-.89-1.29-1.47-3.1-1.57-5.16-.02-.48-.03-.97-.03-1.48-.01-5.82,1.56-12.89,3.2-19.08.81-3.1,1.64-5.98,2.27-8.45.62-2.5,1.1-4.46,1.12-6.27,0-.4-.03-.81-.12-1.27-.64-3.05-1.84-6.59-2.85-10.21-1.03-3.61-1.85-7.28-1.84-10.18,0-1.24.14-2.33.43-3.21.8-2.53,2.2-4.31,3.69-5.5,1.47-1.2,3.1-1.75,3.94-1.8l.65-.02c1.3,0,2.79.25,4.02.53,1.48,6.33,2.83,11.55,3.06,14.87.07.99.11,2.01.11,3.04,0,8.09-2.15,17.34-4.68,27.4-2.3,9.19-4.84,19.09-6.2,29.51ZM191.67,217.96c-.66,2.75-1.2,4.76-2.2,7.64-3.52,7.61-7.17,12.65-10.99,16.19-5.75,5.31-12.09,7.46-19.89,9.5-7.76,2.03-16.85,3.87-27.14,8.8-5.95,2.86-9.51,5.45-12.86,7.1-3.35,1.64-6.56,2.63-12.9,2.65h-.45s-.02,0-.02,0c-6.36-.02-9.58-1.01-12.93-2.65-3.35-1.65-6.91-4.24-12.85-7.1-13.76-6.56-25.29-7.68-34.5-10.99-4.63-1.65-8.69-3.76-12.54-7.31-3.82-3.54-7.47-8.58-10.99-16.19-1-2.88-1.54-4.89-2.2-7.63-1.29-5.36-1.88-10.65-2-15.89l33.08-44.57c.76-1.02,1.16-2.24,1.17-3.49,0-.82-.18-1.66-.55-2.43h0c-2.62-5.45-6.44-11.54-9.57-18.46-3.14-6.92-5.58-14.6-5.58-23.12,0-7.44,1.84-15.57,6.89-24.61,3.24-5.77,7.53-9.59,12.39-12.05,4.86-2.45,10.33-3.51,15.77-3.51,2.07,0,4.14.15,6.15.44h.08s.08.02.08.02c5.31.45,10.37,1.67,14.59,3.32,4.23,1.64,7.61,3.76,9.52,5.78h0c1.13,1.18,2.67,1.81,4.21,1.81,1.53,0,3.08-.63,4.21-1.8,1.92-2.02,5.3-4.14,9.53-5.78,4.22-1.65,9.28-2.87,14.58-3.32h.08s.08-.02.08-.02c2.02-.29,4.09-.44,6.16-.44,5.44,0,10.92,1.06,15.78,3.51,4.87,2.46,9.16,6.28,12.4,12.05,5.04,9.04,6.87,17.17,6.88,24.6,0,8.53-2.45,16.21-5.58,23.13-3.13,6.93-6.94,13.02-9.56,18.46-.37.78-.55,1.62-.55,2.44,0,1.24.4,2.47,1.17,3.49l33.08,44.57c-.12,5.24-.71,10.53-2,15.89ZM202.22,179.75c-.1,2.06-.68,3.86-1.57,5.16-.6.87-1.37,1.44-2.22,1.88l-.04-.39c-1.37-10.42-3.91-20.31-6.22-29.5-2.54-10.06-4.7-19.31-4.69-27.41,0-1.03.04-2.05.11-3.04.23-3.17,1.46-8.06,2.87-13.98,0-.05.02-.09.02-.09l.15-.02c.39-.04.79-.09,1.16-.09l.65.02c.84.05,2.47.6,3.94,1.8,1.49,1.2,2.89,2.98,3.69,5.5.28.88.43,1.97.43,3.21,0,2.9-.81,6.57-1.84,10.18-1.02,3.62-2.22,7.16-2.85,10.21-.1.46-.12.87-.12,1.27.02,1.81.49,3.77,1.12,6.27.63,2.47,1.45,5.35,2.27,8.45,1.63,6.19,3.21,13.26,3.2,19.08,0,.5-.01.99-.03,1.48ZM50.28,157.5s0,0,0,0h0s0,0,0,0ZM12.17,141.98s0,0,0,0h0s0,0,0,0ZM146.4,199.02c-11.28-2.52-36.54,2.79-40.98,3.77-6-1.3-30.1-6.19-40.96-3.77-9.03,2.02-15.77,9.36-19.04,20.8-3.12,13.31,6.31,23.18,11.73,26.54,6.71,4.16,17.55,5.25,27.74,5.25,7.46,0,14.58-.59,19.46-.99l1.07-.09,1.07.09c11.56.96,35.58,2.94,47.2-4.26,5.42-3.36,14.85-13.23,11.69-26.67-3.23-11.31-9.98-18.65-19-20.67ZM65.72,204.59c1.74-.39,3.93-.55,6.38-.55,11.99,0,30.23,3.91,32.76,4.47l.62.12.6-.14c5.85-1.36,29.63-6.01,39.07-3.9,1.93.43,3.72,1.24,5.37,2.34-10.8.3-34.33,1.29-45.09,4.24-10.76-2.95-34.29-3.94-45.09-4.24,1.65-1.1,3.44-1.91,5.37-2.34ZM143.12,230.42l1.12,4.65c-4.12.21-8.72.43-13.41.62l-.47-4.83c4.33-.14,8.68-.29,12.76-.44ZM130.39,213.13c3.84-.27,7.61-.47,11.07-.63l1.95,6.48c-3.8.14-7.86.28-11.93.41l-1.1-6.27ZM116.19,219.83l.36-5.4c2.71-.35,5.62-.64,8.61-.9l1.06,6.03c-3.49.11-6.89.2-10.03.27ZM125.6,235.9c-3.64.13-7.19.24-10.48.3l.32-4.93c3.03-.07,6.29-.15,9.68-.25l.48,4.88ZM105.74,219.98c-.19,0-.38,0-.58,0-1.51,0-3.28-.02-5.23-.05l-.31-4.71c1.92.34,3.66.72,5.06,1.14.25.07.5.11.75.11s.88-.15.95-.17c1.37-.4,3.03-.75,4.86-1.08l-.31,4.7c-1.94.03-3.69.05-5.2.05ZM110.19,231.37l-.32,4.9c-1.62,0-3.16,0-4.49-.03-1.3.03-2.8.04-4.37.03l-.32-4.9c1.62.02,4.87.04,5.07.04,1.3,0,2.83-.02,4.43-.04ZM85.75,231.02c3.39.1,6.66.18,9.68.25l.32,4.93c-3.29-.06-6.84-.17-10.48-.3l.48-4.88ZM84.65,219.57l1.06-6.03c2.99.26,5.9.55,8.61.9l.36,5.4c-3.14-.07-6.53-.16-10.03-.27ZM67.75,230.42c4.08.15,8.43.3,12.76.44l-.48,4.84c-4.69-.19-9.29-.41-13.41-.62l1.12-4.65ZM67.45,218.98l1.95-6.48c3.46.16,7.23.36,11.07.63l-1.1,6.27c-4.06-.13-8.12-.28-11.92-.41ZM55.2,212.04c1.2.02,4.46.09,8.81.24l-1.96,6.5c-4.07-.15-7.58-.29-10.13-.4.9-2.4,2-4.52,3.28-6.35ZM53.24,234.34c-.84-1.35-1.58-2.87-2.08-4.56,2.75.11,6.66.27,11.26.44l-1.11,4.57c-3.59-.2-6.42-.36-8.08-.46ZM150.7,241.5c-9.9,6.14-33.09,4.3-43.36,3.45-.12-.01-1.9-.16-1.9-.16,0,0-1.71.14-1.8.15-10.23.84-33.53,2.71-43.47-3.44-.03-.02-.93-.6-2.16-1.65,11.67.66,35.49,1.88,47.36,1.61,1.01.02,2.1.04,3.27.04.18,0,.98,0,1.19,0,12.72-.03,32.66-1.06,43.02-1.64-1.22,1.05-2.12,1.63-2.15,1.65ZM157.61,234.34c-1.66.1-4.48.26-8.06.46l-1.11-4.57c4.58-.17,8.48-.33,11.23-.44-.5,1.69-1.23,3.21-2.07,4.56ZM148.82,218.78l-1.96-6.5c4.36-.15,7.63-.22,8.82-.24,1.28,1.83,2.38,3.96,3.27,6.35-2.55.1-6.07.24-10.14.4ZM115.38,129.79c.36,2.29.6,4.25.84,6.06.72,5.82,1.2,9.99,5.34,15.69l.44.48c4.01,3.41,8.75,5.22,13.28,5.22,3.09,0,6.06-.84,8.63-2.53,3.93-2.57,5.86-4.53,8.83-10.31,4.05-7.87,3.13-17.54,2.13-27.73l-.36-3.81c3.93-2.13,6.62-3.73,8.27-4.94,1.16-.84,3.21-2.73,4.09-3.97,2.93-3.93,2.93-8.91.04-11.6-2.77-2.57-5.34-1.65-6.46-1.2-1.4.48-3.25,2.05-4.86,3.65-.6-.88-1.52-1.4-2.77-1.61-2.37-.08-4.78,1.16-6.54,3.33-.76.76-1.73,2.13-2.65,3.57-.72-.76-1.52-1.12-1.97-1.24-3.25-1-5.5,1.52-6.3,2.37-1.77,2.05-4.54,5.38-7.5,9.03-4.86,5.86-10.35,12.56-13.4,15.65-.92,1.08-.76,2.25-.28,2.97.32.48.72.76,1.2.92ZM131.19,132.76c-.68,0-1.32-.32-1.77-.8-.36-.4-.56-.92-.56-1.48,0-.24.04-.44.12-.68.28-.96,1.16-1.65,2.21-1.65.2,0,.4.04.6.08.48.12.88.4,1.2.8.32.4.52.88.52,1.44,0,1.24-1.04,2.29-2.33,2.29ZM121.48,128.71c2.57-.92,16.37-7.22,27.53-12.96l.16,1.48c.8,8.31,1.56,16.21-.56,22.31-1-5.18-3.57-10.71-7.95-13.56-2.93-1.89-6.98-2.13-10.51-.6-4.13,1.77-6.22,6.3-5.78,12.52.2,2.85.44,6.34,1.4,9.71-2.85-4.17-3.21-7.18-3.89-12.48-.24-1.81-.48-3.89-.88-6.26.16-.04.32-.12.48-.16ZM56.03,116.63c-1,10.23-1.97,19.9,2.09,27.77,3.01,5.82,4.82,7.7,8.83,10.31,2.57,1.69,5.54,2.53,8.63,2.53,4.54,0,9.27-1.81,13.28-5.22l.44-.48c4.13-5.7,4.65-9.87,5.34-15.69.24-1.81.48-3.77.88-6.06.44-.16.88-.44,1.2-.92.44-.72.6-1.89-.44-3.13-2.89-2.93-8.43-9.63-13.28-15.49-2.97-3.65-5.74-6.98-7.54-9.03-.72-.84-2.93-3.37-6.26-2.37-.4.12-1.24.48-1.93,1.24-.92-1.44-1.85-2.77-2.53-3.45-1.93-2.29-4.29-3.53-6.9-3.41-1.04.16-1.97.68-2.57,1.57-1.6-1.61-3.53-3.21-5.02-3.73-.96-.36-3.49-1.28-6.26,1.28-2.93,2.69-2.93,7.66,0,11.6.92,1.24,2.93,3.13,4.09,3.97,1.64,1.2,4.33,2.81,8.27,4.94l-.32,3.77ZM81.43,131.96c-.44.48-1.08.8-1.77.8-1.28,0-2.33-1.04-2.33-2.29,0-.56.2-1.04.52-1.44.32-.4.72-.68,1.2-.8.2-.04.4-.08.6-.08,1,0,1.89.64,2.21,1.57.08.24.12.48.12.76,0,.56-.2,1.08-.56,1.48ZM61.69,117.19l.16-1.44c11.12,5.74,24.92,12.04,27.53,12.96.16.04.36.12.52.16-.44,2.37-.68,4.45-.92,6.26-.64,5.3-1,8.27-3.89,12.44.96-3.37,1.2-6.82,1.4-9.75.48-6.14-1.64-10.67-5.78-12.44-1.57-.68-3.17-1-4.78-1-2.09,0-4.05.56-5.74,1.61-4.37,2.89-6.94,8.43-7.91,13.6-2.17-6.14-1.4-14.09-.6-22.39ZM93.25,160.08v-.02c-.42,2.08-2.17,3.6-4.41,3.82h-.01c-3.97.4-7.53,1.37-10.38,3.53-2.87,2.15-4.71,5.52-5.21,9.62-.08.59-.11,1.17-.11,1.74.03,4.39,2.05,7.84,4.15,10.05.18.19.8.78.93.89.56.48,1.12.86,1.63,1.16.1.06.94.45,1,.47,2.23.93,4.86,1.39,7.62,1.7,2.28.25,4.57.35,6.7.41.86,1.4,1.89,2.67,3.23,3.57,1.76,1.2,3.9,1.83,6.13,1.82.31,0,.62-.02.93-.04.3.02.61.04.91.04,2.28,0,4.46-.65,6.26-1.9,1.28-.89,2.27-2.12,3.12-3.48.8-.02,1.65-.04,2.56-.09,1.33-.08,2.78-.16,4.23-.34,1.39-.16,2.81-.37,4.17-.68h0s.03,0,.04,0c0,0,.02,0,.03,0h0c1.24-.26,2.39-.61,3.46-1.1h0s.2-.07.2-.07l.17-.11h0c.91-.41,1.65-.98,2.41-1.63l.08-.07c2.3-2.18,4.64-5.87,4.67-10.64,0-.54-.03-1.09-.1-1.65v-.03c-.51-4.1-2.35-7.47-5.22-9.62-2.85-2.16-6.41-3.13-10.38-3.53h-.01c-2.25-.22-4.03-1.77-4.4-3.79h0c-.62-3.17-1.59-6.99-3.32-10.29-.87-1.65-1.93-3.19-3.38-4.42-1.43-1.23-3.36-2.1-5.5-2.09-2.14-.01-4.08.86-5.51,2.09-2.17,1.86-3.5,4.38-4.53,6.98-1.02,2.61-1.69,5.36-2.15,7.73ZM98.95,160.67c.55-2.75,1.44-5.93,2.66-8.23.63-1.22,1.35-2.17,2-2.71.67-.55,1.16-.73,1.83-.74.65.01,1.14.19,1.81.74.99.81,2.08,2.57,2.91,4.7.72,1.84,1.28,3.92,1.69,5.83.06.3.28,1.36.34,1.59,1.07,4.02,4.44,6.87,8.38,7.58.31.06,1.52.19,1.81.23,2.93.38,5.13,1.17,6.59,2.29,1.58,1.24,2.59,2.84,3.01,5.8l.06.95c.02,2-.8,3.85-1.78,5.21-.15-.28-.32-.58-.54-.88-.96-1.39-2.99-2.84-5.77-2.8-.73,0-1.5.09-2.31.27-.17.04-.53.13-.54.13h0c-.22.06-.43.12-.64.19-2.93.93-5.01,2.87-6.39,4.54-1.08,1.32-1.76,2.5-2.07,3.1-.12.22-.65,1.34-.72,1.49-.53,1.05-1.19,1.79-1.92,2.29-.83.57-1.79.88-3.02.89h-1.84c-1.21,0-2.13-.3-2.93-.84-.7-.48-1.34-1.18-1.87-2.17-.07-.13-.55-1.04-.64-1.2-.36-.63-.91-1.48-1.69-2.43-1.4-1.69-3.5-3.65-6.48-4.57-.13-.04-1.13-.3-1.32-.33-.51-.1-.99-.17-1.46-.2-.14,0-1.14,0-1.31,0-1.84.15-3.32.94-4.29,1.88-.05.04-.41.42-.44.45-.31.35-.55.7-.75,1.03-1.17-1.25-2.33-3.22-2.48-5.42-.01-.19.09-1.88.12-2.02.45-2.68,1.44-4.18,2.94-5.36,1.46-1.12,3.67-1.91,6.61-2.29.28-.04,1.21-.13,1.38-.16,4.09-.57,7.58-3.44,8.75-7.49.08-.27.27-1.18.3-1.34Z"/>
  </g>
</svg>