<svg width="45" height="60" viewBox="0 0 45 60" fill="none" xmlns="http://www.w3.org/2000/svg">
<path d="M26.3534 29.4224C26.3066 29.0216 26.2597 28.5737 26.166 28.055C26.2129 28.055 26.2363 28.0315 26.2597 28.0079C26.494 27.9372 27.1265 27.6542 27.9463 27.277L27.9932 27.3713C27.1967 27.7957 26.7985 28.7387 26.8922 30.0354C26.9391 30.6484 26.9859 31.4264 27.1967 32.1572C26.5877 31.2377 26.494 30.6012 26.3534 29.446V29.4224Z" fill="white"/>
<path d="M17.288 51.3242C16.2808 51.277 15.2735 51.2298 14.3833 51.1827L14.6176 50.1689C15.5077 50.1925 16.4447 50.2397 17.3817 50.2632L17.288 51.3242Z" fill="white"/>
<path d="M13.0012 52.5972C13.0012 52.5972 12.7904 52.4558 12.5327 52.2436C15.0626 52.385 20.2162 52.6444 22.793 52.5972C23.0038 52.5972 23.2381 52.5972 23.4958 52.5972H23.7534C26.4942 52.5972 30.8279 52.3615 33.0533 52.2436C32.7956 52.4793 32.5848 52.5972 32.5848 52.5972C30.4296 53.941 25.4166 53.5403 23.1912 53.3516C23.1678 53.3516 22.7696 53.3281 22.7696 53.3281H22.3713C20.1459 53.5402 15.1095 53.941 12.9544 52.6208L13.0012 52.5972Z" fill="white"/>
<path d="M20.4735 47.8821C19.7941 47.8821 19.068 47.835 18.2949 47.8114L18.5292 46.4911C19.1851 46.5383 19.8176 46.609 20.4032 46.6798L20.4735 47.8585V47.8821Z" fill="white"/>
<path d="M9.81515 47.8821C9.13582 50.7819 11.1738 52.9273 12.3451 53.6581C13.7975 54.554 16.14 54.8134 18.342 54.8134C20.5439 54.8134 21.5044 54.6955 22.5585 54.6012H22.7928H23.027C25.5335 54.8134 30.7339 55.2377 33.2404 53.6817C34.4117 52.9509 36.4497 50.8055 35.7704 47.8821C35.0676 45.4303 33.6153 43.8271 31.6475 43.3792C29.2113 42.8369 23.7298 43.9921 22.7693 44.2043C21.4809 43.9214 16.2571 42.8605 13.9146 43.3792C11.9703 43.8271 10.4945 45.4303 9.79172 47.9057L9.81515 47.8821ZM24.7371 27.4185C24.5262 27.6542 24.5731 27.9136 24.6668 28.055C24.7371 28.1493 24.8308 28.22 24.9245 28.2672C24.9947 28.7623 25.065 29.1866 25.1119 29.5874C25.2758 30.8605 25.3695 31.7564 26.2597 33.0059L26.3534 33.1002C27.2201 33.831 28.2509 34.2318 29.2347 34.2318C30.2186 34.2318 30.5465 34.0432 31.1087 33.6896C31.9521 33.1238 32.3737 32.6994 33.0296 31.4499C33.8964 29.7289 33.709 27.6306 33.4981 25.4145L33.4279 24.5894C34.2712 24.1179 34.8568 23.7642 35.2082 23.5049C35.4659 23.3163 35.9109 22.9155 36.0983 22.6326C36.7308 21.7839 36.7308 20.6994 36.0983 20.11C35.4893 19.5442 34.9505 19.7564 34.6928 19.8507C34.3883 19.945 33.9901 20.2986 33.6387 20.6523C33.4981 20.4637 33.3107 20.3458 33.0296 20.2986C32.5143 20.2986 31.9989 20.558 31.6241 21.0295C31.4601 21.1945 31.2493 21.501 31.0619 21.8075C30.8979 21.6424 30.7339 21.5717 30.6402 21.5481C29.9375 21.3359 29.4455 21.8782 29.2816 22.0668C28.9068 22.5147 28.2977 23.2456 27.6652 24.0236C26.6111 25.2967 25.4164 26.7583 24.7605 27.442L24.7371 27.4185ZM15.812 38.9234C15.812 39.89 16.2571 40.6208 16.7022 41.1159C16.749 41.1631 16.8662 41.2809 16.913 41.3045C17.0301 41.3988 17.1473 41.4931 17.2644 41.5638L17.4752 41.6581C17.9672 41.8703 18.5294 41.9646 19.115 42.0354C19.6069 42.0825 20.0989 42.1061 20.5674 42.1297C20.7548 42.4361 20.9656 42.7191 21.2701 42.9077C21.6449 43.167 22.1134 43.3084 22.6054 43.3084C22.6756 43.3084 22.7459 43.3084 22.8162 43.3084C22.8865 43.3084 22.9567 43.3084 23.0036 43.3084C23.4955 43.3084 23.964 43.167 24.3623 42.8841C24.6434 42.6955 24.8542 42.4126 25.0416 42.1297C25.2056 42.1297 25.393 42.1297 25.6038 42.1297C25.8849 42.1297 26.2129 42.1061 26.5174 42.0589C26.8219 42.0118 27.1264 41.9882 27.4075 41.9175C27.6652 41.8703 27.9229 41.776 28.1572 41.6817H28.204H28.2509C28.4383 41.5874 28.6022 41.4695 28.7662 41.3281C29.2581 40.833 29.7735 40.0314 29.7735 38.9941C29.7735 38.8762 29.7735 38.7583 29.7735 38.6405C29.6564 37.7446 29.2581 37.0137 28.6491 36.5422C28.04 36.0707 27.267 35.8585 26.4003 35.7642C25.9083 35.7171 25.5335 35.387 25.4398 34.9391C25.2993 34.2554 25.0884 33.4067 24.7136 32.6994C24.5262 32.3458 24.292 32.0157 23.9875 31.7328C23.6829 31.4735 23.2613 31.2849 22.7928 31.2849C22.3243 31.2849 21.9026 31.4735 21.5981 31.7328C21.1296 32.1336 20.8485 32.6758 20.6142 33.2652C20.4034 33.831 20.2394 34.444 20.1457 34.9391C20.052 35.387 19.6772 35.7171 19.1853 35.7642C18.3185 35.8585 17.5455 36.0707 16.9364 36.5422C16.304 37.0137 15.9057 37.7446 15.812 38.6405C15.812 38.7583 15.7886 38.8998 15.7886 39.0177L15.812 38.9234ZM9.4872 20.11C8.85471 20.6994 8.85471 21.7839 9.4872 22.6326C9.69802 22.8919 10.1197 23.3163 10.3774 23.5049C10.7287 23.7642 11.3144 24.1179 12.1577 24.5894L12.0874 25.4145C11.8766 27.6542 11.6657 29.7525 12.5325 31.4735C13.1884 32.7466 13.5632 33.1473 14.4534 33.7132C15.0156 34.0904 15.648 34.2554 16.3274 34.2554C17.3112 34.2554 18.342 33.8546 19.2087 33.1238L19.3024 33.0295C20.1926 31.78 20.3097 30.8841 20.4502 29.611C20.4971 29.2102 20.5439 28.7859 20.6376 28.2908C20.7313 28.2672 20.825 28.1965 20.8953 28.0786C20.989 27.9136 21.0359 27.6778 20.8016 27.3949C20.1691 26.7583 18.9744 25.2967 17.9203 24.0236C17.2878 23.222 16.6788 22.5147 16.2805 22.0668C16.1166 21.8782 15.648 21.3359 14.9219 21.5481C14.8282 21.5717 14.6408 21.6424 14.5002 21.8075C14.2894 21.501 14.102 21.1945 13.9614 21.053C13.5398 20.558 13.0244 20.275 12.4622 20.3222C12.228 20.3458 12.0406 20.4637 11.9 20.6523C11.5486 20.2986 11.127 19.945 10.8224 19.8507C10.6116 19.78 10.0728 19.5678 9.46377 20.1336L9.4872 20.11ZM8.92499 28.998C8.24566 27.4892 7.70687 25.8153 7.70687 23.9528C7.70687 22.3261 8.1051 20.558 9.20609 18.6012C9.90885 17.3517 10.8459 16.5029 11.8766 15.9843C12.9307 15.442 14.102 15.2299 15.2967 15.2299C16.4914 15.2299 16.1868 15.2534 16.6319 15.3242C17.7798 15.4185 18.8807 15.6778 19.7943 16.055C20.7079 16.4086 21.4341 16.8802 21.8558 17.3045C22.09 17.5638 22.4414 17.7053 22.7693 17.7053C23.0973 17.7053 23.4252 17.5638 23.6829 17.3045C24.1046 16.8566 24.8308 16.4086 25.7444 16.055C26.6579 15.7014 27.7589 15.442 28.9068 15.3242C29.3518 15.2534 29.7969 15.2299 30.242 15.2299C31.4133 15.2299 32.608 15.4656 33.6621 15.9843C34.7162 16.5265 35.6533 17.3517 36.3326 18.6012C37.4336 20.5815 37.8084 22.3497 37.8084 23.9528C37.8084 25.8153 37.2696 27.4892 36.5903 28.998C35.9109 30.5069 35.091 31.8271 34.5288 33.0295C34.4586 33.1945 34.4117 33.3831 34.4117 33.5717C34.4117 33.831 34.5054 34.1139 34.6694 34.3261L41.8375 44.0393C41.8141 45.1709 41.6736 46.3261 41.4159 47.5049C41.2753 48.0943 41.1582 48.5422 40.9474 49.1788C40.1978 50.8291 39.4013 51.9371 38.558 52.7151C37.3164 53.8703 35.9344 54.3418 34.2477 54.7898C32.5611 55.2377 30.5934 55.6385 28.368 56.6994C27.0796 57.3124 26.3066 57.8782 25.5804 58.2554C24.8542 58.609 24.1514 58.8212 22.7928 58.8212H22.6991C21.317 58.8212 20.6142 58.609 19.9115 58.2554C19.1853 57.9018 18.4122 57.3359 17.1238 56.6994C14.1488 55.2613 11.6423 55.0255 9.65117 54.3183C8.64388 53.9646 7.77715 53.4931 6.93384 52.7151C6.11395 51.9371 5.31749 50.8526 4.54446 49.1788C4.33363 48.5422 4.2165 48.1179 4.07595 47.5049C3.79485 46.3261 3.67772 45.1945 3.6543 44.0393L10.8224 34.3261C10.9864 34.0904 11.0801 33.831 11.0801 33.5717C11.0801 33.3124 11.0333 33.2181 10.963 33.053C10.4008 31.8743 9.5809 30.5304 8.90156 29.0216L8.92499 28.998Z" fill="white"/>
<path d="M21.5981 47.9057L21.5278 46.892C21.9495 46.9627 22.3243 47.057 22.6288 47.1513C22.6757 47.1513 22.7459 47.1749 22.7928 47.1749C22.8396 47.1749 22.9802 47.1513 23.0036 47.1277C23.3082 47.0334 23.6595 46.9627 24.0578 46.892L23.9875 47.9057C23.5658 47.9057 23.191 47.9057 22.8631 47.9057H22.7459C22.418 47.9057 22.0432 47.9057 21.6215 47.9057H21.5981Z" fill="white"/>
<path d="M17.2175 28.9037C16.9364 28.9037 16.7256 28.668 16.7256 28.4086C16.7256 28.1493 16.7724 28.1729 16.8427 28.1022C16.913 28.0079 17.0067 27.9607 17.1004 27.9371C17.1472 27.9371 17.1941 27.9371 17.2409 27.9371C17.4518 27.9371 17.6392 28.0786 17.7094 28.2672C17.7094 28.3143 17.7329 28.3615 17.7329 28.4322C17.7329 28.5501 17.686 28.668 17.6157 28.7623C17.522 28.8566 17.3815 28.9273 17.2409 28.9273L17.2175 28.9037Z" fill="white"/>
<path d="M27.9931 28.7387C27.9228 28.6444 27.876 28.5265 27.876 28.4087C27.876 28.2908 27.876 28.3144 27.8994 28.2672C27.9697 28.055 28.1571 27.9136 28.3679 27.9136C28.5787 27.9136 28.4616 27.9136 28.5085 27.9136C28.6022 27.9371 28.6959 28.0079 28.7661 28.0786C28.8364 28.1729 28.8833 28.2672 28.8833 28.3851C28.8833 28.6444 28.649 28.8802 28.3913 28.8802C28.1337 28.8802 28.1102 28.8094 28.0165 28.7151L27.9931 28.7387Z" fill="white"/>
<path d="M13.3992 47.6464C12.5091 47.6228 11.7595 47.5757 11.1973 47.5521C11.3847 47.0334 11.6423 46.5619 11.9 46.1611C12.1577 46.1611 12.8605 46.1611 13.7975 46.2083L13.3758 47.6228L13.3992 47.6464Z" fill="white"/>
<path d="M32.327 51.1356L32.0928 50.1454C33.0766 50.0982 33.9199 50.0747 34.529 50.0511C34.4119 50.4283 34.2713 50.7584 34.0839 51.0413C33.7325 51.0413 33.1235 51.0884 32.3504 51.1356H32.327Z" fill="white"/>
<path d="M22.7928 45.9961C20.4737 45.3595 15.3669 45.1473 13.0244 45.0766C13.3758 44.8408 13.774 44.6522 14.1957 44.5579C14.5705 44.4636 15.039 44.4401 15.5778 44.4401C18.178 44.4401 22.1134 45.2888 22.6756 45.4067H22.8162C22.8162 45.4302 22.9567 45.4067 22.9567 45.4067C24.2217 45.1002 29.3753 44.11 31.4133 44.5579C31.8349 44.6522 32.2097 44.8173 32.5845 45.0766C30.242 45.1473 25.1587 45.3595 22.8162 45.9961H22.7928Z" fill="white"/>
<path d="M18.6932 30.0118C18.7869 28.668 18.3418 27.6778 17.4517 27.3006L17.4985 27.2299C18.3887 27.6542 19.0914 27.9607 19.3257 28.0314C19.3725 28.0314 19.396 28.055 19.4428 28.0786C19.3491 28.5972 19.3023 29.0452 19.232 29.446C19.0914 30.6012 19.0212 31.2377 18.3887 32.1572C18.5995 31.4263 18.6464 30.6719 18.6932 30.0354V30.0118Z" fill="white"/>
<path d="M32.1863 47.6464L31.7646 46.2318C32.7017 46.2083 33.4044 46.1847 33.6621 46.1847C33.9432 46.5855 34.1775 47.057 34.3649 47.5757C33.8027 47.5757 33.053 47.6228 32.1629 47.67L32.1863 47.6464Z" fill="white"/>
<path d="M17.1471 47.7878C16.2569 47.7643 15.3902 47.7171 14.5703 47.6935L14.992 46.279C15.7416 46.3026 16.5615 46.3497 17.3813 46.4204L17.1471 47.7878Z" fill="white"/>
<path d="M27.8525 28.4087C27.8525 28.5265 27.8993 28.6444 27.9696 28.7387C28.0633 28.833 28.2039 28.9037 28.3444 28.9037C28.6255 28.9037 28.8363 28.668 28.8363 28.4087C28.8363 28.1493 28.7895 28.1729 28.7192 28.1022C28.6489 28.0079 28.5552 27.9607 28.4615 27.9371C28.4147 27.9371 28.3678 27.9371 28.321 27.9371C28.0867 27.9371 27.8993 28.0786 27.8525 28.2908C27.8525 28.3379 27.8291 28.3851 27.8291 28.4322L27.8525 28.4087ZM24.6901 28.055C24.5964 27.89 24.5495 27.6542 24.7603 27.4185C25.4163 26.7348 26.6109 25.2967 27.6651 24C28.2976 23.1984 28.9066 22.4912 29.2814 22.0432C29.4454 21.8546 29.9373 21.3124 30.6401 21.5246C30.7338 21.5481 30.9212 21.6189 31.0618 21.7839C31.2726 21.4774 31.46 21.1709 31.624 21.0059C31.9988 20.5344 32.5375 20.2751 33.0295 20.2751C33.2872 20.3222 33.498 20.4401 33.6385 20.6287C33.9899 20.2751 34.3881 19.945 34.6927 19.8271C34.9269 19.7328 35.4891 19.5206 36.0982 20.0865C36.7307 20.6758 36.7307 21.7603 36.0982 22.609C35.9108 22.8684 35.4657 23.2927 35.208 23.4813C34.8566 23.7407 34.271 24.0943 33.4277 24.5658L33.498 25.391C33.7088 27.6071 33.9196 29.7053 33.0295 31.4263C32.397 32.6758 31.9753 33.1238 31.1086 33.666C30.5464 34.0432 29.9139 34.2083 29.2346 34.2083C28.2507 34.2083 27.22 33.8075 26.3533 33.0766L26.2596 32.9823C25.3694 31.7328 25.2523 30.8369 25.1117 29.5639C25.0649 29.1631 25.018 28.7387 24.9243 28.2436C24.8306 28.2201 24.7369 28.1493 24.6666 28.0314L24.6901 28.055ZM28.1336 27.3006C28.9066 26.9705 29.7734 27.0177 30.4058 27.4421C31.3429 28.055 31.9051 29.2574 32.1159 30.389C32.5844 29.0688 32.4204 27.3478 32.233 25.5324V25.2024C30.7572 25.9332 29.1409 26.7348 27.9228 27.277C27.1029 27.6542 26.4704 27.9371 26.2361 28.0079C26.2127 28.0079 26.1659 28.0314 26.1424 28.055C26.2361 28.5737 26.283 29.0216 26.3298 29.4224C26.4704 30.5776 26.5641 31.2377 27.1732 32.1336C26.9623 31.4028 26.9155 30.6483 26.8686 30.0118C26.7749 28.7387 27.1732 27.7721 27.9696 27.3478C28.0165 27.3242 28.0633 27.3006 28.1102 27.277L28.1336 27.3006Z" fill="#231815"/>
<path d="M31.1791 51.2063C30.2889 51.2534 29.2817 51.3006 28.2744 51.3477L28.1807 50.2868C29.1177 50.2632 30.0547 50.2161 30.9448 50.1925L31.1791 51.2063Z" fill="white"/>
<path d="M16.7021 28.4087C16.7021 28.668 16.9363 28.9038 17.194 28.9038C17.4517 28.9038 17.4751 28.833 17.5688 28.7387C17.6391 28.6444 17.6859 28.5265 17.6859 28.4087C17.6859 28.2908 17.6859 28.2908 17.6625 28.2436C17.5922 28.0315 17.4048 27.9136 17.194 27.9136C16.9832 27.9136 17.1003 27.9136 17.0534 27.9136C16.9597 27.9372 16.866 28.0079 16.7958 28.0786C16.7255 28.1729 16.6786 28.2672 16.6786 28.3851L16.7021 28.4087ZM13.3288 25.5324C13.1648 27.3478 13.0009 29.0688 13.4694 30.4126C13.6802 29.281 14.2424 28.0786 15.1794 27.4421C15.5542 27.2063 15.9759 27.0884 16.4209 27.0884C16.866 27.0884 17.1237 27.1592 17.4517 27.3006C18.3418 27.6778 18.8103 28.668 18.6932 30.0118C18.6464 30.6484 18.5995 31.4028 18.3887 32.1336C19.0212 31.2142 19.0914 30.5776 19.232 29.4224C19.2788 29.0216 19.3257 28.5737 19.4428 28.055C19.4194 28.055 19.3725 28.0315 19.3257 28.0079C19.0914 27.9136 18.3887 27.6071 17.4985 27.2063C16.3038 26.6641 14.7578 25.9096 13.3757 25.1788V25.4853L13.3288 25.5324ZM9.48706 22.6326C8.85457 21.7839 8.85457 20.6994 9.48706 20.11C10.0961 19.5442 10.6349 19.7564 10.8457 19.8271C11.1737 19.945 11.5953 20.2986 11.9233 20.6287C12.0638 20.4401 12.2512 20.3222 12.4855 20.2986C13.0477 20.2751 13.5631 20.5344 13.9847 21.0295C14.1253 21.1709 14.3361 21.4774 14.5235 21.7839C14.664 21.6189 14.8515 21.5482 14.9452 21.5246C15.6713 21.3124 16.1398 21.8546 16.3038 22.0432C16.702 22.4912 17.2877 23.222 17.9436 24C18.9977 25.2731 20.1924 26.7348 20.8249 27.3713C21.0592 27.6307 21.0123 27.89 20.9186 28.055C20.8483 28.1493 20.7546 28.2201 20.6609 28.2672C20.5672 28.7623 20.5204 29.1867 20.4735 29.5874C20.333 30.8605 20.2158 31.7564 19.3257 33.0059L19.232 33.1002C18.3652 33.8311 17.3345 34.2318 16.3507 34.2318C15.3668 34.2318 15.0389 34.0432 14.4766 33.6896C13.6099 33.1238 13.2117 32.6994 12.5558 31.4499C11.689 29.7289 11.8764 27.6307 12.1107 25.391L12.181 24.5658C11.3377 24.0943 10.752 23.7407 10.4006 23.4814C10.143 23.2928 9.72131 22.892 9.51048 22.6091L9.48706 22.6326Z" fill="#231815"/>
<path d="M30.4059 27.442C29.7735 27.0412 28.9067 26.9705 28.1337 27.3006C28.0868 27.3006 28.04 27.3477 27.9931 27.3713L27.9463 27.277C29.1644 26.7112 30.7808 25.9332 32.2097 25.2023V25.5324C32.4205 27.3477 32.5845 29.0687 32.116 30.389C31.9052 29.2573 31.343 28.055 30.4059 27.442Z" fill="white"/>
<path d="M31.0151 47.6935C30.1953 47.7171 29.3051 47.7643 28.4384 47.7878L28.2041 46.4204C29.024 46.3733 29.8439 46.3261 30.5935 46.279L31.0151 47.6935Z" fill="white"/>
<path d="M1.99128 28.6916C1.75703 27.9136 1.59305 27.112 1.59305 26.4755C1.59305 26.2161 1.61648 25.9804 1.68676 25.7682C1.85073 25.2259 2.15526 24.8252 2.48322 24.5658C2.81117 24.3065 3.16255 24.1886 3.32653 24.165H3.46708C3.74818 24.165 4.07614 24.2122 4.33381 24.2829C4.66177 25.6739 4.94287 26.8055 4.98972 27.5128C4.98972 27.725 4.98972 27.9607 4.98972 28.1729C4.98972 29.9411 4.52122 31.945 3.98243 34.1375C3.4905 36.1415 2.9283 38.2868 2.64719 40.5737C2.53007 40.5737 2.41294 40.5265 2.29581 40.5265C1.96786 40.4558 1.73361 40.2672 1.52278 39.9843C1.33538 39.7014 1.19482 39.3006 1.19482 38.8527C1.19482 38.7584 1.19482 38.6405 1.19482 38.5226C1.19482 37.2495 1.52278 35.7171 1.89758 34.3733C2.08499 33.6896 2.24896 33.0766 2.38951 32.5344C2.53007 31.9922 2.62377 31.5678 2.62377 31.167C2.62377 31.0727 2.62377 31.002 2.60034 30.8841C2.45979 30.224 2.20211 29.446 1.99128 28.668V28.6916Z" fill="white"/>
<path d="M42.5638 32.8409C42.4232 32.2986 42.3295 31.8743 42.3295 31.4735C42.3295 31.3792 42.3295 31.2849 42.3529 31.1906C42.4935 30.5305 42.7512 29.7525 42.962 28.9745C43.1962 28.1965 43.3602 27.3949 43.3602 26.7583C43.3602 26.499 43.3368 26.2633 43.2665 26.0511C43.1025 25.5088 42.798 25.1081 42.4701 24.8487C42.1421 24.5894 41.7907 24.4715 41.6268 24.4479H41.4862C41.4159 24.4479 41.3222 24.4479 41.2285 24.4479H41.2051C40.9006 25.7446 40.6429 26.8055 40.5726 27.4892C40.5726 27.7014 40.5726 27.9371 40.5726 28.1493C40.5726 29.9175 41.0411 31.9214 41.5799 34.1139C42.0718 36.1179 42.634 38.2633 42.9151 40.5501V40.6444C43.1025 40.5501 43.2665 40.4322 43.4071 40.2436C43.5945 39.9607 43.735 39.5599 43.735 39.112C43.735 39.0177 43.735 38.8998 43.735 38.7819C43.735 37.5088 43.4071 35.9764 43.0323 34.6326C42.8449 33.9489 42.6809 33.336 42.5403 32.7937L42.5638 32.8409ZM2.64706 31.1906C2.64706 31.5914 2.52993 32.0157 2.41281 32.558C2.27225 33.1002 2.10828 33.7132 1.92087 34.3969C1.56949 35.7407 1.21812 37.2731 1.21812 38.5462C1.21812 38.664 1.21812 38.7583 1.21812 38.8762C1.21812 39.3242 1.35867 39.7249 1.54607 40.0079C1.73347 40.2908 1.99115 40.4558 2.3191 40.5501C2.43623 40.5501 2.55336 40.5972 2.67048 40.5972C2.97501 38.334 3.51379 36.165 4.00573 34.1611C4.54451 31.9686 5.01301 29.9646 5.01301 28.1965C5.01301 27.9607 5.01301 27.7485 5.01301 27.5363C4.96616 26.8055 4.66163 25.6739 4.35711 24.3065C4.09943 24.2358 3.77147 24.1886 3.49037 24.1886H3.34982C3.16241 24.1886 2.81104 24.3301 2.50651 24.5894C2.17855 24.8487 1.87402 25.2259 1.71005 25.7917C1.63977 25.9804 1.61635 26.2161 1.61635 26.499C1.61635 27.1356 1.78032 27.9371 2.01458 28.7151C2.2254 29.4931 2.48308 30.2711 2.62363 30.9312C2.62363 31.0255 2.64706 31.1198 2.64706 31.2141V31.1906ZM0.79646 29.0452C0.562207 28.22 0.351379 27.3477 0.351379 26.499C0.351379 26.1454 0.39823 25.7682 0.491931 25.4145C0.74961 24.613 1.19469 24.0236 1.68662 23.6228C2.17855 23.222 2.71733 23.0098 3.20927 22.9627C3.27954 22.9627 3.37324 22.9627 3.44352 22.9627C3.65435 22.9627 3.84175 22.9627 4.02915 23.0098C3.7012 21.4303 3.42009 19.6149 3.42009 17.5874C3.42009 15.5599 3.49037 15.3949 3.7012 14.2161C4.09943 11.8585 5.31754 10.2554 6.76991 9.1945C8.22228 8.1336 9.9089 7.61493 11.3144 7.28487C12.2514 7.07269 13.0947 6.93124 13.6335 6.83694C13.8209 6.78978 13.9849 6.76621 14.0786 6.71906C14.43 6.01179 14.6642 4.95088 15.1796 3.8664C15.7184 2.7112 16.6085 1.48527 18.3186 0.777996C19.443 0.282908 20.8954 0 22.7928 0C25.6507 0 27.4779 0.636542 28.7194 1.60314C29.9375 2.59332 30.4763 3.8664 30.8511 4.97446C31.0854 5.63458 31.2728 6.22397 31.4836 6.69548H31.5773C31.7413 6.76621 31.9521 6.81336 32.2332 6.86051C32.7954 6.95481 33.545 7.09627 34.3883 7.28487C36.075 7.68566 38.113 8.39293 39.6825 9.92534C40.7366 10.9391 41.5565 12.3536 41.861 14.1925C42.0484 15.3477 42.1421 16.4794 42.1421 17.5639C42.1421 19.6857 41.8376 21.5717 41.4862 23.1984C41.5565 23.1984 41.6502 23.1984 41.7205 23.1984C42.2124 23.2456 42.7512 23.4578 43.2431 23.8585C43.735 24.2593 44.2035 24.8487 44.4378 25.6503C44.5549 26.0039 44.5783 26.3576 44.5783 26.7348C44.5783 27.5835 44.3675 28.4558 44.1333 29.2809C43.899 30.1061 43.6413 30.8605 43.5476 31.4263C43.5476 31.5914 43.6179 31.9921 43.7585 32.5108C43.9459 33.2888 44.2504 34.3026 44.5081 35.4106C44.7657 36.5187 44.9766 37.6974 44.9766 38.8055C44.9766 39.9136 44.9766 39.0648 44.9766 39.1827C44.9531 39.7721 44.7892 40.3615 44.4846 40.833C44.4846 40.8802 44.3909 40.9745 44.3675 40.998C44.063 41.446 43.5945 41.776 43.0323 41.9411C43.0791 42.389 43.1025 42.8134 43.1025 43.2613C43.1025 43.3556 43.1025 43.8978 43.1025 43.9686C43.0791 45.1945 42.9386 46.444 42.634 47.7171C42.4935 48.3301 42.3529 48.8487 42.1187 49.5324C42.1187 49.556 42.1187 49.5796 42.1187 49.5796C41.2988 51.3477 40.4321 52.6208 39.4482 53.5167C38.4643 54.4361 37.4102 54.9784 36.3092 55.3792C34.1072 56.1572 31.7413 56.3929 28.9771 57.7132C27.7824 58.279 27.0796 58.8212 26.2129 59.2456C25.3462 59.6699 24.3623 59.9528 22.8631 59.9528H22.7694C21.2702 59.9528 20.2863 59.6699 19.4196 59.2456C18.5528 58.8212 17.8501 58.279 16.6554 57.7132C14.5705 56.6994 12.7199 56.3222 11.0099 55.8743C9.29984 55.4263 7.66007 54.8841 6.18428 53.5167C5.24727 52.6444 4.40396 51.442 3.6075 49.7682C3.58407 49.6974 3.42009 49.2731 3.37324 49.1552C3.20927 48.6365 3.09214 48.1886 2.97501 47.6699C2.67048 46.4204 2.52993 45.1945 2.50651 43.9686C2.50651 43.8978 2.50651 43.7328 2.50651 43.7328C2.50651 43.7328 2.50651 43.4027 2.50651 43.3556C2.50651 42.8134 2.55336 42.2711 2.57678 41.7525C2.45966 41.7525 2.3191 41.7053 2.20198 41.6817C2.17855 41.6817 2.038 41.6582 2.01458 41.6346C1.42894 41.4931 0.937012 41.1159 0.609058 40.668C0.609058 40.668 0.515357 40.5501 0.491931 40.5029C0.187402 40.0079 0.0468506 39.442 0 38.8527C0 38.7348 0 38.5933 0 38.4754C0 37.3674 0.210828 36.1886 0.468506 35.0806C0.726184 33.9725 1.03071 32.9352 1.21812 32.1807C1.35867 31.6857 1.42894 31.2613 1.42894 31.1198C1.31182 30.554 1.05414 29.776 0.843311 28.9509L0.79646 29.0452ZM7.70692 23.9528C7.70692 25.8153 8.24571 27.4892 8.92504 28.998C9.60437 30.5069 10.4243 31.8271 10.9865 33.0059C11.0567 33.1709 11.1036 33.3595 11.1036 33.5481C11.1036 33.8075 11.0099 34.0904 10.8459 34.3026L3.67777 44.0157C3.7012 45.1473 3.84175 46.3026 4.09943 47.4813C4.23998 48.0707 4.35711 48.5187 4.56793 49.1552C5.31754 50.8055 6.114 51.9136 6.95731 52.6916C7.80062 53.4695 8.66736 53.9175 9.67465 54.2947C11.6658 55.002 14.1723 55.2613 17.1473 56.6758C18.4357 57.2888 19.2087 57.8546 19.9349 58.2318C20.6611 58.5855 21.3639 58.7976 22.7225 58.7976H22.8162C24.1983 58.7976 24.8777 58.5855 25.6039 58.2318C26.33 57.8782 27.1031 57.3124 28.3915 56.6758C30.6169 55.5914 32.5846 55.1906 34.2712 54.7662C35.9578 54.3183 37.3399 53.8468 38.5815 52.6916C39.4013 51.9136 40.1978 50.8291 40.9708 49.1552C41.1817 48.5187 41.2988 48.0943 41.4393 47.4813C41.7205 46.3026 41.8376 45.1709 41.861 44.0157L34.6929 34.3026C34.5289 34.0904 34.4352 33.8075 34.4352 33.5481C34.4352 33.2888 34.482 33.1945 34.5523 33.0059C35.1145 31.8271 35.9344 30.4833 36.6137 28.9745C37.2931 27.4656 37.8319 25.7917 37.8319 23.9293C37.8319 22.3026 37.4336 20.5344 36.3561 18.5776C35.6533 17.3281 34.7163 16.4794 33.6856 15.9607C32.6314 15.4185 31.4367 15.2063 30.2655 15.2063C29.0942 15.2063 29.3753 15.2299 28.9302 15.3006C27.7824 15.3949 26.6814 15.6542 25.7678 16.0314C24.8542 16.3851 24.1281 16.8566 23.7064 17.2809C23.4721 17.5403 23.1208 17.6817 22.7928 17.6817C22.4649 17.6817 22.1369 17.5403 21.8792 17.2809C21.4576 16.833 20.7314 16.3851 19.8178 16.0314C18.9042 15.6778 17.8032 15.4185 16.6554 15.3006C16.2103 15.2299 15.7652 15.2063 15.3201 15.2063C14.1489 15.2063 12.9542 15.442 11.9001 15.9607C10.8459 16.5029 9.9089 17.3281 9.22957 18.5776C8.12858 20.558 7.73035 22.3261 7.73035 23.9293L7.70692 23.9528Z" fill="#231815"/>
<path d="M27.1497 51.3713C26.3532 51.3949 25.6036 51.4185 24.8774 51.4421L24.9477 50.3576C25.6036 50.3576 26.3064 50.334 27.0326 50.3104L27.1263 51.3713H27.1497Z" fill="white"/>
<path d="M13.4929 50.1454L13.2586 51.1356C12.4856 51.0884 11.8765 51.0648 11.5017 51.0413C11.3143 50.7584 11.1503 50.4283 11.0566 50.0511C11.6423 50.0747 12.4856 50.1218 13.4929 50.1454Z" fill="white"/>
<path d="M17.0301 39.0648C17.0536 39.5363 17.3112 39.9843 17.5689 40.2436C17.6158 40.1729 17.6626 40.1021 17.7329 40.0078L17.8266 39.9135C18.0374 39.7014 18.3654 39.5363 18.7636 39.5128C18.8104 39.5128 19.0213 39.5128 19.0447 39.5128C19.1384 39.5128 19.2555 39.5128 19.3727 39.5599C19.4195 39.5599 19.6303 39.6306 19.6538 39.6306C20.2862 39.8428 20.7547 40.2672 21.0593 40.6208C21.2233 40.833 21.3404 41.0216 21.4341 41.1395C21.4341 41.163 21.5512 41.3752 21.5746 41.3988C21.6918 41.611 21.8323 41.776 21.9729 41.8703C22.1368 41.9882 22.3477 42.0589 22.6053 42.0589H23.0036C23.2613 42.0589 23.4721 41.9882 23.6595 41.8703C23.8235 41.7524 23.964 41.611 24.0811 41.3752C24.0811 41.3517 24.2217 41.0923 24.2451 41.0452C24.3154 40.9037 24.4559 40.6444 24.6902 40.3615C24.9947 40.0078 25.4398 39.5835 26.0723 39.3713C26.1191 39.3713 26.166 39.3477 26.2128 39.3241C26.2128 39.3241 26.2831 39.3241 26.33 39.3006C26.5174 39.2534 26.6813 39.2298 26.8219 39.2298C27.431 39.2298 27.8526 39.5363 28.0634 39.8428C28.1103 39.9135 28.1571 39.9843 28.1806 40.0314C28.3914 39.7249 28.5788 39.3241 28.5554 38.8998V38.6876C28.4617 38.0511 28.2274 37.6974 27.8995 37.4145C27.5949 37.1788 27.103 36.9902 26.4705 36.9194C26.4002 36.9194 26.1426 36.8723 26.0723 36.8723C25.229 36.7072 24.4794 36.0943 24.2685 35.222C24.2685 35.1748 24.1983 34.9391 24.1983 34.8683C24.1046 34.444 23.9874 33.9961 23.8235 33.5953C23.6361 33.1238 23.4018 32.7465 23.191 32.5815C23.0504 32.4636 22.9333 32.4165 22.7928 32.4165C22.6522 32.4165 22.5351 32.4636 22.3945 32.5815C22.254 32.6994 22.09 32.9116 21.9494 33.1709C21.6918 33.666 21.5044 34.3733 21.3638 34.9627C21.3638 35.0098 21.317 35.1984 21.2935 35.2456C21.0359 36.1179 20.2862 36.7544 19.3961 36.8723C19.3492 36.8723 19.1618 36.8959 19.0916 36.8959C18.4591 36.9666 17.9671 37.1552 17.6626 37.3909C17.3347 37.6503 17.1238 37.9803 17.0301 38.5697C17.0301 38.5933 17.0067 38.9705 17.0067 39.0177L17.0301 39.0648ZM16.7022 41.1159C16.2571 40.6444 15.812 39.89 15.812 38.9234C15.812 38.8055 15.812 38.664 15.8354 38.5462C15.9526 37.6503 16.3508 36.9194 16.9599 36.4479C17.5689 35.9764 18.3419 35.7642 19.2087 35.6699C19.7006 35.6228 20.0754 35.2927 20.1691 34.8448C20.2628 34.3261 20.4034 33.7367 20.6376 33.1709C20.8719 32.6051 21.153 32.0628 21.6215 31.6385C21.926 31.3792 22.3477 31.1906 22.8162 31.1906C23.2847 31.1906 23.7063 31.3792 24.0109 31.6385C24.3154 31.8978 24.5496 32.2515 24.7371 32.6051C25.1119 33.3124 25.3227 34.1611 25.4632 34.8448C25.5335 35.2927 25.9317 35.6228 26.4237 35.6699C27.2904 35.7642 28.0634 35.9764 28.6725 36.4479C29.2816 36.9194 29.7032 37.6503 29.7969 38.5462C29.7969 38.664 29.7969 38.8055 29.7969 38.9234C29.7969 39.9607 29.2816 40.7623 28.7896 41.2338C28.6256 41.3988 28.4617 41.5167 28.2743 41.611C28.04 41.7289 27.6886 41.7996 27.431 41.8467C27.1264 41.9175 26.8219 41.9646 26.5408 41.9882C26.2363 42.0353 25.9083 42.0353 25.6272 42.0589C25.4398 42.0589 25.2524 42.0589 25.065 42.0589C24.8776 42.3654 24.6668 42.6247 24.3857 42.8133C23.9874 43.0962 23.5189 43.2377 23.027 43.2377C22.9567 43.2377 22.8865 43.2377 22.8396 43.2377C22.7693 43.2377 22.699 43.2377 22.6288 43.2377C22.1368 43.2377 21.6918 43.0962 21.2935 42.8369C21.0124 42.6483 20.7782 42.3654 20.5908 42.0589C20.1223 42.0589 19.6303 42.0118 19.1384 41.9646C18.5293 41.8939 17.9671 41.7996 17.4986 41.5874C17.4986 41.5874 17.3112 41.4931 17.2878 41.4931C17.1707 41.4224 16.7022 41.1159 16.7022 41.1159C16.8717 41.2264 16.6787 41.0923 16.7022 41.1159Z" fill="#231815"/>
<path d="M32.1863 47.6464C33.0764 47.6228 33.826 47.5756 34.3882 47.5521C34.2008 47.0334 33.9666 46.5619 33.6855 46.1611C33.4278 46.1611 32.7251 46.1611 31.788 46.2083L32.2097 47.6228L32.1863 47.6464ZM34.0837 51.0413C34.2711 50.7584 34.4117 50.4283 34.5288 50.0511C33.9432 50.0747 33.0999 50.0982 32.0926 50.1454L32.3268 51.1356C33.0999 51.0884 33.7089 51.0648 34.0603 51.0413H34.0837ZM12.5324 52.2436C12.7901 52.4794 13.0009 52.5973 13.0009 52.5973C15.1561 53.9411 20.1925 53.5403 22.4179 53.3517H22.8161C22.8161 53.3281 23.191 53.3517 23.2378 53.3517C25.4632 53.5403 30.4762 53.9411 32.6313 52.5973C32.6313 52.5973 32.8422 52.4558 33.0999 52.2436C30.851 52.3615 26.5408 52.5973 23.8 52.5973H23.5423C23.2847 52.5973 23.0504 52.5973 22.8396 52.5973C20.2628 52.6444 15.1092 52.3851 12.5793 52.2436H12.5324ZM28.1805 50.2868L28.2742 51.3478C29.2815 51.3006 30.2888 51.2534 31.179 51.2063L30.9447 50.1925C30.0546 50.2161 29.1176 50.2633 28.1805 50.2868ZM28.4382 47.7878C29.3284 47.7643 30.1951 47.7171 31.015 47.6935L30.5933 46.279C29.8437 46.3026 29.0239 46.3497 28.204 46.4204L28.4382 47.7878ZM25.1118 47.8821C25.7912 47.8821 26.5173 47.835 27.2904 47.835L27.0561 46.5147C26.4002 46.5619 25.7677 46.6326 25.1821 46.7034L25.1118 47.8821ZM24.8776 51.4421C25.5803 51.4421 26.3534 51.3949 27.1498 51.3713L27.0561 50.3104C26.3299 50.3104 25.6272 50.3576 24.9713 50.3576L24.901 51.4421H24.8776ZM21.5278 46.8684L21.598 47.8821C22.0197 47.8821 22.3945 47.8821 22.7224 47.8821H22.8396C23.1675 47.8821 23.5423 47.8821 23.964 47.8821L24.0343 46.8684C23.636 46.9391 23.2847 47.0098 22.9801 47.1041C22.9801 47.1041 22.8396 47.1513 22.7693 47.1513C22.699 47.1513 22.6522 47.1513 22.6053 47.1277C22.3008 47.0334 21.926 46.9627 21.5043 46.8684H21.5278ZM21.762 50.3812L21.8323 51.4421C22.1837 51.4421 22.4882 51.4421 22.7693 51.4421C23.0504 51.4421 23.4018 51.4421 23.7297 51.4421L23.8 50.3812C23.4486 50.3812 23.1207 50.3812 22.8396 50.3812C22.5585 50.3812 22.09 50.3812 21.7386 50.3812H21.762ZM18.4356 51.3713C19.2321 51.3949 19.9817 51.4185 20.7079 51.4421L20.6376 50.3576C19.9817 50.3576 19.2789 50.334 18.5527 50.3104L18.459 51.3713H18.4356ZM18.2951 47.8114C19.0447 47.8114 19.7943 47.8586 20.4736 47.8821L20.4033 46.7034C19.8177 46.6326 19.1852 46.5619 18.5293 46.5147L18.2951 47.835V47.8114ZM13.2352 51.1356L13.4695 50.1454C12.4622 50.0982 11.6189 50.0747 11.0332 50.0511C11.1503 50.4283 11.2909 50.7584 11.4783 51.0413C11.8297 51.0413 12.4387 51.0884 13.2352 51.1356ZM13.3992 47.6464L13.8208 46.2318C12.8838 46.2083 12.1811 46.1847 11.9234 46.1847C11.6423 46.5855 11.408 47.0334 11.2206 47.5757C11.7828 47.5757 12.5324 47.6228 13.4226 47.67L13.3992 47.6464ZM13.0244 45.0766C15.3669 45.1474 20.4502 45.3595 22.7927 45.9961C25.1118 45.3595 30.2185 45.1474 32.5611 45.0766C32.2097 44.8409 31.8115 44.6523 31.3898 44.558C29.3518 44.0865 24.1982 45.1002 22.9333 45.4067H22.7927C22.7927 45.4303 22.6522 45.4067 22.6522 45.4067C22.1134 45.2888 18.1545 44.4401 15.5543 44.4401C14.7829 44.4401 14.547 44.4872 14.1722 44.558C13.7506 44.6523 13.3758 44.8173 13.0009 45.0766H13.0244ZM14.5704 47.6935C15.3903 47.7171 16.2805 47.7643 17.1472 47.7878L17.3815 46.4204C16.5616 46.3733 15.7417 46.3261 14.9921 46.279L14.5704 47.6935ZM14.383 51.2063C15.2732 51.2534 16.2805 51.3006 17.2878 51.3478L17.3815 50.2868C16.4445 50.2633 15.5075 50.2161 14.6173 50.1925L14.383 51.2063ZM12.345 53.6582C11.1738 52.9273 9.13577 50.7819 9.81511 47.8821C10.5179 45.3831 11.9937 43.78 13.938 43.3556C16.2805 42.8369 21.5043 43.8978 22.7927 44.1808C23.7532 43.9686 29.2113 42.8134 31.6709 43.3556C33.6152 43.8035 35.091 45.4067 35.7938 47.8586C36.4731 50.7819 34.4351 52.9273 33.2638 53.6582C30.7573 55.2377 25.5569 54.7898 23.0504 54.5776H22.8161H22.5819C21.5278 54.6719 19.9817 54.7898 18.3653 54.7898C16.749 54.7898 13.8208 54.554 12.3685 53.6346L12.345 53.6582Z" fill="#231815"/>
<path d="M13.3525 25.2023C14.7346 25.9096 16.2807 26.664 17.4754 27.2298L17.4285 27.3006C17.1006 27.1591 16.7492 27.0884 16.3978 27.0884C16.0464 27.0884 15.5311 27.2063 15.1563 27.442C14.2192 28.0786 13.657 29.2809 13.4462 30.4125C12.9777 29.0687 13.1417 27.3477 13.3057 25.5324V25.2259L13.3525 25.2023Z" fill="white"/>
<path d="M27.2904 47.8114C26.5408 47.8114 25.7912 47.8585 25.1118 47.8585L25.1821 46.6798C25.7677 46.609 26.4002 46.5383 27.0561 46.4911L27.2904 47.8114Z" fill="white"/>
<path d="M17.5691 40.2436C17.3114 39.9607 17.0537 39.5363 17.0303 39.0648C17.0303 39.0177 17.0303 38.664 17.0537 38.6169C17.1474 38.0275 17.3582 37.6974 17.6862 37.4381C17.9907 37.2023 18.4826 37.0137 19.1151 36.943C19.1854 36.943 19.3728 36.9194 19.4197 36.9194C20.3098 36.8015 21.0594 36.165 21.3171 35.2927C21.3171 35.222 21.364 35.0334 21.3874 35.0098C21.5045 34.4204 21.6919 33.7131 21.973 33.218C22.1136 32.9587 22.2541 32.7465 22.4181 32.6287C22.5586 32.5108 22.6758 32.4636 22.8163 32.4636C22.9569 32.4636 23.074 32.5108 23.2146 32.6287C23.4254 32.7937 23.6596 33.1945 23.847 33.6424C24.011 34.0432 24.1281 34.4911 24.2218 34.9155C24.2218 34.9862 24.2921 35.222 24.2921 35.2691C24.5264 36.1414 25.2526 36.7544 26.0959 36.9194C26.1661 36.9194 26.4238 36.9666 26.4941 36.9666C27.1266 37.0609 27.5951 37.2259 27.923 37.4617C28.2744 37.721 28.4852 38.0746 28.5789 38.7347V38.9469C28.5789 39.3713 28.415 39.7956 28.2041 40.0786C28.1807 40.0078 28.1339 39.9607 28.087 39.8899C27.8762 39.5835 27.4311 39.277 26.8455 39.277C26.6815 39.277 26.5175 39.277 26.3535 39.3477C26.3067 39.3477 26.2364 39.3713 26.2364 39.3713C26.1896 39.3713 26.1427 39.3949 26.0959 39.4184C25.4634 39.6306 25.0183 40.055 24.7138 40.4086C24.4795 40.6915 24.339 40.9509 24.2687 41.0923C24.2453 41.1395 24.1281 41.3752 24.1047 41.4224C23.9876 41.6581 23.847 41.8232 23.6831 41.9175C23.4957 42.0353 23.2848 42.1061 23.0271 42.1061H22.6289C22.3712 42.1061 22.1604 42.0353 21.9964 41.9175C21.8559 41.8232 21.7153 41.6581 21.5982 41.4459C21.5982 41.4224 21.4811 41.2102 21.4577 41.1866C21.3874 41.0452 21.2703 40.8566 21.0828 40.6679C20.7783 40.2907 20.3332 39.8664 19.6773 39.6778C19.6539 39.6778 19.4431 39.607 19.3962 39.607C19.2791 39.607 19.1854 39.5599 19.0683 39.5599C19.0448 39.5599 18.834 39.5599 18.7872 39.5599C18.3889 39.5835 18.061 39.7721 17.8502 39.9607L17.7565 40.055C17.6862 40.1257 17.6393 40.1964 17.5925 40.2907L17.5691 40.2436Z" fill="white"/>
<path d="M21.8325 51.4656L21.7622 50.4047C22.1136 50.4047 22.8163 50.4047 22.8632 50.4047C23.1443 50.4047 23.4723 50.4047 23.8236 50.4047L23.7534 51.4656C23.402 51.4656 23.074 51.4656 22.7929 51.4656C22.5118 51.4656 22.1839 51.4656 21.8559 51.4656H21.8325Z" fill="white"/>
<path d="M42.3297 31.4735C42.3297 31.8743 42.4468 32.2987 42.5639 32.8409C42.7045 33.3831 42.8684 33.9961 43.0558 34.6798C43.4072 36.0236 43.7586 37.556 43.7586 38.8291C43.7586 38.947 43.7586 39.0413 43.7586 39.1592C43.7586 39.6071 43.618 40.0079 43.4306 40.2908C43.2901 40.4794 43.1261 40.5973 42.9387 40.6916V40.5973C42.6342 38.334 42.072 36.1651 41.58 34.1611C41.0413 31.9686 40.5728 29.9647 40.5728 28.1965C40.5728 27.9607 40.5728 27.7486 40.5728 27.5364C40.6196 26.8527 40.9007 25.7682 41.2052 24.4951H41.2287C41.3224 24.4951 41.3926 24.4951 41.4863 24.4951H41.6269C41.8143 24.4951 42.1657 24.6366 42.4702 24.8959C42.7982 25.1552 43.1027 25.5324 43.2667 26.0983C43.3369 26.2869 43.3604 26.5226 43.3604 26.8055C43.3604 27.4421 43.1964 28.2436 42.9621 29.0216C42.7513 29.8232 42.4936 30.5776 42.3531 31.2377C42.3531 31.3321 42.3297 31.4264 42.3297 31.5207V31.4735Z" fill="white"/>
<path d="M20.7078 51.4421C20.005 51.4421 19.232 51.3949 18.4355 51.3713L18.5292 50.3104C19.2554 50.3104 19.9816 50.3576 20.6141 50.3576L20.6844 51.4421H20.7078Z" fill="white"/>
</svg>
