<?xml version="1.0" encoding="UTF-8"?>
<svg id="_レイヤー_2" data-name="レイヤー 2" xmlns="http://www.w3.org/2000/svg" viewBox="0 0 228.76 236">
  <defs>
    <style>
      .cls-1 {
        fill: #1f1f1f;
      }
    </style>
  </defs>
  <g id="_レイヤー_1-2" data-name="レイヤー 1">
    <g>
      <path class="cls-1" d="M205.96,122.28c-4.3-4.67-6.66-10.74-6.64-17.11v-.11c0-31.93-38.1-57.91-84.94-57.91S29.44,73.13,29.44,105.07v.12c.02,6.35-2.34,12.42-6.64,17.1C8.1,138.26,0,156.4,0,173.36c0,20.32,11.86,36.85,34.31,47.78,19.95,9.72,47.64,14.86,80.07,14.86s60.12-5.14,80.07-14.86c22.44-10.94,34.31-27.46,34.31-47.78,0-16.96-8.1-35.1-22.8-51.08ZM114.38,230c-52.39,0-108.38-14.88-108.38-56.64,0-15.45,7.53-32.14,21.21-47.01,5.33-5.79,8.25-13.31,8.22-21.17v-.11c0-13.5,8.05-26.35,22.68-36.2,15.05-10.13,35.03-15.71,56.27-15.71s41.22,5.58,56.27,15.71c14.62,9.85,22.68,22.7,22.68,36.2v.1c-.02,7.87,2.9,15.39,8.22,21.18,13.68,14.87,21.21,31.57,21.21,47.01,0,41.76-55.99,56.64-108.38,56.64Z"/>
      <path class="cls-1" d="M17.66,102.36c1.66,0,3-1.34,3-3v-.13c0-34.35,42.04-62.29,93.72-62.29s93.72,27.94,93.72,62.29v.06c-.03,1.65,1.28,3.03,2.93,3.06.02,0,.04,0,.07,0,1.62,0,2.96-1.29,3-2.93v-.2c0-32.39-33.1-59.59-77.35-66.56,5.55-2.89,9.35-8.68,9.35-15.36,0-9.55-7.77-17.32-17.32-17.32-6,0-11.29,3.07-14.4,7.72-3.11-4.65-8.4-7.72-14.4-7.72-9.55,0-17.32,7.77-17.32,17.32,0,6.67,3.8,12.47,9.35,15.36C47.76,39.65,14.66,66.84,14.66,99.23v.13c0,1.66,1.34,3,3,3ZM128.78,6c6.24,0,11.32,5.08,11.32,11.32s-5.08,11.32-11.32,11.32-11.32-5.08-11.32-11.32,5.08-11.32,11.32-11.32ZM88.66,17.32c0-6.24,5.08-11.32,11.32-11.32s11.32,5.08,11.32,11.32-5.08,11.32-11.32,11.32-11.32-5.08-11.32-11.32ZM114.38,26.91c1.04,1.56,2.34,2.93,3.83,4.08-1.27-.03-2.54-.06-3.83-.06s-2.56.02-3.82.06c1.48-1.15,2.78-2.52,3.82-4.08Z"/>
    </g>
  </g>
</svg>