<?xml version="1.0" encoding="UTF-8"?>
<svg id="_レイヤー_2" data-name="レイヤー 2" xmlns="http://www.w3.org/2000/svg" viewBox="0 0 227 227">
  <defs>
    <style>
      .cls-1 {
        fill: #1f1f1f;
      }
    </style>
  </defs>
  <g id="_レイヤー_1-2" data-name="レイヤー 1">
    <g>
      <path class="cls-1" d="M113.5,227C50.92,227,0,176.08,0,113.5S50.92,0,113.5,0s113.5,50.92,113.5,113.5-50.92,113.5-113.5,113.5ZM113.5,7C54.78,7,7,54.78,7,113.5s47.78,106.5,106.5,106.5,106.5-47.78,106.5-106.5S172.22,7,113.5,7Z"/>
      <g>
        <path class="cls-1" d="M178.99,58.35c-1.26-1.46-3.47-1.63-4.94-.37l-48.61,41.84c1.83,1.47,3.37,3.27,4.56,5.31l48.62-41.85c1.46-1.26,1.63-3.47.37-4.94Z"/>
        <path class="cls-1" d="M98.3,103.19l-47.51-23.81c-1.73-.87-3.83-.17-4.7,1.56-.87,1.73-.17,3.83,1.56,4.7l47.5,23.81c.66-2.29,1.74-4.4,3.14-6.25Z"/>
      </g>
      <circle class="cls-1" cx="113.5" cy="114.72" r="9.99" transform="translate(-34.25 49.81) rotate(-21.59)"/>
    </g>
  </g>
</svg>