<?xml version="1.0" encoding="UTF-8"?>
<svg id="_レイヤー_2" data-name=" レイヤー 2" xmlns="http://www.w3.org/2000/svg" viewBox="0 0 426.8 58.3">
  <defs>
    <style>
      .cls-1 {
        fill: #fff;
      }
    </style>
  </defs>
  <g id="_レイヤー_1-2" data-name=" レイヤー 1-2">
    <g>
      <g>
        <path class="cls-1" d="M327.3,18.2l-10.7,21.1-8.8-4.5,8.1-15.1c0-.1.1-.3.1-.5,0-.7-.4-1-1.1-1h-6.9v-7.9h12.1L325,0l9.9,4.1-2.3,4.8c0,.1-.1.2-.1.4,0,.7.4,1.1,1.1,1.1h26.1v7.9h-32.4,0ZM345.3,50.9v-5.5h2.2v-8.5h-4c0,0,0,18.8,0,18.8h-8.8v-18.8h-2.4c-1.1,0-1.7.6-1.7,1.8v12.6h-8.1v-22.1h11.8v-7.1h9.5v5.3c0,1.1.6,1.8,1.7,1.8h10.1v21.8h-10.4Z"/>
        <path class="cls-1" d="M388.6,30.3c-1.2,0-1.7.6-1.7,1.7v1.8h6.9v6.8h-6.9v3.8l6.5-.2.3,6.6-23.9,1.2-.2-6.9,8-.3v-2.4c0-1.2-.6-1.7-1.8-1.7h-4.7v-6.8h6.6v-3.4h-9V5.5h27.6v24.8h-7.7,0ZM389.7,13.6h-13.6v8.8c0,1.1.6,1.8,1.7,1.8h11.8v-10.6h0ZM384.6,20.8v1.9h-3.5v-1.9h-2v-3.4c0,0,2.1,0,2.1,0v-1.9h3.5v1.9h2.1v3.4c0,0-2.1,0-2.1,0h0ZM419.3,39v-2.2c0-.6-.2-.9-.9-.9h-1.9v19.6h-13.5v-7h3.5v-10.9c0-1.2-.6-1.7-1.7-1.7h-6.3v-7.3h27.9v10.4h-7.1,0ZM418.1,18.7c-.4.4-.6.8-.6,1.2s.2.9.5,1.3l1.6,1.9-5.3,4.5-11-12.1,5.3-4.3,3.3,3.6,3.9-4h-15.3V3.5h26.3v5.8l-8.7,9.4h0Z"/>
      </g>
      <g>
        <path class="cls-1" d="M153.1,46.2c-1.7,2.3-4.2,3.7-7.4,4.3-.6,0-1.3.2-2.1.2l-.2,5.7-7.7-.3.3-5.5c-.7,0-1.9-.2-3.8-.3l.6-7.1c.6,0,1.7,0,3.4.2l.4-9.2c-2.1,1.2-4.2,3-6.5,5.5-1.8,2-3.2,3.9-4.4,5.7h-5.5v-18.6h7.2v4.3c0,.6.2,1,.6,1s.6-.1.8-.4c2.6-2.7,5.3-4.4,8.1-5.2l.2-6.5,8.4.2v4.1c-.1,1.2.5,2,1.9,2.5,2.6.9,4.6,2.4,6.1,4.5,1.4,2,2.1,4.4,2.1,7.1s-.8,6.1-2.4,8.2h0ZM144.2,32.9l-.4,10.5c3-.3,4.5-2.2,4.5-5.4,0-2.7-1.4-4.4-4.1-5.1h0Z"/>
        <path class="cls-1" d="M196.2,53.9l-7.2-3.5c1.8-3.1,2.8-5.5,2.9-7.5.1-2.4-.6-4.4-2.1-5.9-.2-.3-.6-.5-1-.5-.6,0-1.1.4-1.3,1.1l-1.7,4.8c-2.7,7.7-7.2,11.6-13.6,11.6s-6.5-1.1-8.6-3.5c-2-2.2-3-5-3-8.7,0-5.5,2.4-9.6,7.4-12.5.8-.5,1.2-1.2,1.1-2.1l-.4-4.8,7.2-.6.4,4.5c1.8-.3,3.7-.4,5.4-.4,1,0,1.6-.4,1.8-1.2l.8-2.8,7.8,2.4-1.2,3.9c5.8,3,8.7,7.8,8.7,14.5,0,4-1.2,7.7-3.6,11.2h0ZM176.3,33.8l.7,8.1-6.6.7-.6-5.7c-1.5,1.4-2.2,3.1-2.2,4.8,0,3.2,1.5,4.8,4.4,4.8s2.9-.8,4-2.4c.6-.9,1.3-2.4,2-4.5l2.1-6.1c-1.3,0-2.7,0-4,.2h0Z"/>
        <path class="cls-1" d="M225.4,58.3l-8.6-3.7,5.5-12.1c.1-.2.1-.3.1-.5,0-.9-.5-1.4-1.5-1.4h-16.6v-7.7h30.3v5l-9.2,20.4h0ZM207.4,27.9v-8h25.3v8h-25.3Z"/>
        <path class="cls-1" d="M245.6,31.6c-.7.7-1.5,1-2.6,1s-1.8-.3-2.4-1c-.7-.6-1.1-1.5-1.1-2.4s.4-1.8,1.1-2.4c.7-.7,1.5-1,2.4-1s1.9.3,2.6,1c.7.6,1.1,1.4,1.1,2.4s-.4,1.8-1.1,2.4ZM251.2,54.8l-7.7-6.4,19.7-22,7.7,6.4-19.7,22h0Z"/>
        <path class="cls-1" d="M299.7,41l-10.8-1.2c-.6,0-1.1,0-1.6.5-.4.3-.6.8-.6,1.4v13.6h-9.4V20.6h9.4v11.1l13.8,1.5-.9,7.7h0ZM295,28.6l-2.4-2.2,2.4-2.2,2.3,2.2-2.3,2.2ZM302.4,28.6l-2.3-2.2,2.3-2.2,2.3,2.2-2.3,2.2Z"/>
      </g>
      <g>
        <path class="cls-1" d="M73.5,36.4c0-.2-.1-.4-.3-.4h-1.2v1.9h1.5v-1.5Z"/>
        <path class="cls-1" d="M72.3,33.7h1.2v-1.6h-1.5v1.3c0,.2.1.4.3.4Z"/>
        <path class="cls-1" d="M73.5,40.3h-1.2c-.2,0-.3.1-.3.4v1.2h1.5v-1.6Z"/>
        <path class="cls-1" d="M36,43.7h3.1c.5,0,.7-.2.7-.7v-5.8h-3.8v6.5ZM37.2,38.4h1.5v1.3h-1.5v-1.3ZM37.2,40.9h1.5v1.4h-1.5v-1.4Z"/>
        <path class="cls-1" d="M85.5,39.4h1.5c.3,0,.5-.1.7-.3.2-.2.3-.4.3-.7v-2.1h-2.5v3.2Z"/>
        <path class="cls-1" d="M111.2,53c-2-6.1-6.1-17.4-7.1-19.4h0c-.7-1.6-5.8-12.1-10-15.5-4.2-3.4-10.8-3.2-12.8-2.5-8,2.8-9.6,4.3-11.8,5.6-5.8,3.2-10.2,1.1-11.3-.7-8.7-14.1-13.8-15.8-23.4-15.8C18.9,4.6,9,35.1.3,52.7c-.9,1.9.4,4,2.5,4h105.8c1.9,0,3.3-1.9,2.7-3.7ZM42.2,28.4l.9.9-.9.9-.9-.9.9-.9ZM34.2,28.3l.9.9-.9.9-.9-.9.9-.9ZM31.6,30.7h13v2.5h-4.6c-.2,0-.3.1-.3.3v.9s3.6,0,3.6,0v11.5h-10.1v-11.5h3c.2,0,.3-.1.3-.4v-.9h-4.9v-2.5ZM26.7,31.9l1.6,1.6-1.6,1.5-1.6-1.5,1.6-1.6ZM44.8,50.2h-19.8v-3h1.6l.9-1.7-2-.8v-2.8c0-.5-.2-.7-.7-.7h-1.5v-3.1h5.1v4.7l2.9,1.3-1.5,3h15.1v3ZM60.4,45.4l-2.1-2.2c.9-.9,1.4-1.9,1.4-2.9,0-.9-.4-1.5-1.3-2-.7-.4-1.5-.6-2.5-.5-.9,0-1.7.2-2.4.6-.8.5-1.2,1.2-1.2,2,0,.3.1.6.4.9.2.2.5.3.9.3.9,0,1.5-1,1.6-2.8l3.1.2c-.3,3.5-1.8,5.3-4.6,5.4-1.1,0-2.1-.3-2.9-1-.8-.7-1.2-1.6-1.2-2.7,0-1.7.5-3.1,1.9-4.1,1.2-1,2.7-1.5,4.5-1.5,1.8,0,3.4.4,4.7,1.2,1.4,1,2.2,2.3,2.2,4,0,2.1-.8,3.8-2.4,5.2ZM68.8,48.5l-1-1,1-1,1,1-1,1ZM71.2,50.1l-1.1-1.1,1.1-1,1,1-1,1.1ZM70.1,46.2l1-1,1,1-1,1-1-1ZM73.4,48.5l-1-1,1-1,1.1,1-1.1,1ZM79.2,32.2h0s-2.2,0-2.2,0c-.5,0-.7.2-.7.7v.7h2.4v2.6h-2.4v1.5h2.5v2.5h-2.5v1c0,.2.1.3.3.3h2.4v9h-4.5v-2.4h1.2v-2.6c0-.3-.1-.5-.3-.7-.2-.2-.4-.3-.7-.3h-6.1s0-15.3,0-15.3h10.7v2.9ZM85.5,49.3h-3.8v-16.8h9.2v9.6h-5.3v7.2ZM89.1,49.4l-2.1-4.7,2.6-1.1,2.1,4.7s-2.5,1.1-2.5,1.1Z"/>
      </g>
    </g>
  </g>
</svg>