<?xml version="1.0" encoding="UTF-8"?>
<svg id="_レイヤー_2" data-name="レイヤー 2" xmlns="http://www.w3.org/2000/svg" viewBox="0 0 426.84 58.32">
  <defs>
    <style>
      .cls-1 {
        fill: #7bbd28;
      }

      .cls-2 {
        fill: #fff;
      }

      .cls-3 {
        fill: #734620;
      }

      .cls-4 {
        fill: #006934;
      }
    </style>
  </defs>
  <g id="_レイヤー_1-2" data-name="レイヤー 1">
    <g>
      <g>
        <path class="cls-4" d="M327.34,18.24l-10.71,21.08-8.78-4.47,8.09-15.1c.06-.12.12-.3.12-.48,0-.66-.37-1.03-1.12-1.03h-6.92v-7.85h12.15l4.86-10.39,9.9,4.11-2.3,4.77c-.06.12-.12.24-.12.42,0,.72.37,1.09,1.12,1.09h26.1v7.85h-32.39ZM345.28,50.86v-5.5h2.18v-8.46l-3.98-.06v18.85h-8.78v-18.85h-2.37c-1.12,0-1.74.6-1.74,1.75v12.56h-8.09v-22.11h11.83v-7.1h9.53v5.34c0,1.15.56,1.75,1.74,1.75h10.09v21.81h-10.4Z"/>
        <path class="cls-1" d="M388.61,30.32c-1.18,0-1.74.6-1.74,1.69v1.75h6.91v6.83h-6.91v3.75l6.54-.24.31,6.64-23.91,1.15-.25-6.89,7.97-.3v-2.42c0-1.15-.62-1.69-1.81-1.69h-4.67v-6.83h6.6v-3.44h-8.97V5.5h27.64v24.83h-7.72ZM389.67,13.59h-13.57v8.82c0,1.15.62,1.75,1.74,1.75h11.83v-10.57ZM384.63,20.78v1.93h-3.55v-1.93h-2.05l-.06-3.44h2.12v-1.87h3.55v1.87h2.12l.06,3.44h-2.18ZM419.3,38.96v-2.23c0-.6-.25-.91-.87-.91h-1.93v19.57h-13.51v-7.01h3.55v-10.87c0-1.15-.56-1.69-1.74-1.69h-6.29v-7.31h27.89v10.45h-7.1ZM418.12,18.67c-.37.36-.56.79-.56,1.21s.19.85.5,1.27l1.56,1.87-5.29,4.53-11.02-12.14,5.29-4.35,3.3,3.56,3.92-3.99h-15.32V3.5h26.34v5.8l-8.72,9.36Z"/>
      </g>
      <g>
        <path class="cls-3" d="M153.1,46.23c-1.68,2.33-4.19,3.71-7.45,4.26-.61.1-1.33.15-2.14.2l-.25,5.65-7.66-.35.26-5.55c-.66-.1-1.94-.2-3.78-.3l.56-7.08c.56.05,1.74.1,3.42.25l.36-9.21c-2.09,1.19-4.24,2.97-6.54,5.45-1.79,1.98-3.22,3.86-4.39,5.65h-5.51v-18.62h7.25v4.31c0,.64.21.99.61.99.31,0,.56-.15.82-.4,2.6-2.67,5.31-4.41,8.07-5.25l.25-6.54,8.42.2-.15,4.06c0,1.24.66,2.03,2.04,2.53,2.6.89,4.65,2.38,6.08,4.46,1.43,2.03,2.14,4.41,2.14,7.08,0,3.32-.82,6.09-2.4,8.22ZM144.16,32.86l-.41,10.5c2.96-.35,4.49-2.18,4.54-5.4,0-2.72-1.38-4.41-4.13-5.1Z"/>
        <path class="cls-3" d="M196.19,53.91l-7.25-3.52c1.84-3.07,2.81-5.55,2.86-7.53.1-2.43-.61-4.41-2.09-5.94-.25-.3-.61-.5-.97-.5-.61,0-1.07.4-1.28,1.09l-1.68,4.75c-2.66,7.73-7.2,11.59-13.58,11.59-3.68,0-6.54-1.14-8.58-3.47-1.99-2.18-2.96-5.05-2.96-8.67,0-5.45,2.45-9.61,7.35-12.48.82-.5,1.17-1.19,1.12-2.08l-.41-4.75,7.25-.59.36,4.51c1.84-.3,3.68-.4,5.41-.4,1.02.05,1.63-.35,1.84-1.24l.82-2.77,7.81,2.38-1.17,3.91c5.77,2.97,8.68,7.78,8.73,14.51,0,3.96-1.17,7.73-3.57,11.19ZM176.33,33.75l.71,8.07-6.59.74-.56-5.7c-1.53,1.44-2.25,3.07-2.25,4.85,0,3.17,1.48,4.8,4.44,4.8,1.58,0,2.91-.84,4.03-2.43.61-.94,1.33-2.43,2.04-4.51l2.14-6.09c-1.33-.1-2.66,0-3.98.25Z"/>
        <path class="cls-3" d="M225.39,58.32l-8.63-3.71,5.51-12.09c.1-.15.15-.35.15-.54,0-.94-.51-1.39-1.48-1.39h-16.64v-7.73h30.28v5.05l-9.19,20.41ZM207.37,27.91v-8.02h25.27v8.02h-25.27Z"/>
        <path class="cls-3" d="M245.61,31.57c-.66.69-1.53.99-2.55.99-.92,0-1.79-.3-2.45-.99-.71-.64-1.07-1.49-1.07-2.43,0-.99.36-1.78,1.07-2.43.66-.69,1.53-.99,2.45-.99,1.02,0,1.89.3,2.55.99.71.64,1.07,1.44,1.07,2.43s-.36,1.78-1.07,2.43ZM251.17,54.8l-7.66-6.44,19.71-21.99,7.66,6.44-19.71,21.99Z"/>
        <path class="cls-3" d="M299.67,40.98l-10.77-1.24c-.61-.05-1.12.1-1.58.5-.41.35-.61.84-.61,1.39v13.57h-9.39V20.63h9.39v11.14l13.84,1.54-.87,7.68ZM295.03,28.6l-2.35-2.23,2.35-2.23,2.3,2.23-2.3,2.23ZM302.43,28.6l-2.3-2.23,2.3-2.23,2.3,2.23-2.3,2.23Z"/>
      </g>
      <path class="cls-4" d="M104.18,33.61c-.73-1.56-5.85-12.11-10.01-15.5s-10.8-3.21-12.84-2.49c-8,2.82-9.58,4.33-11.78,5.56-5.82,3.23-10.17,1.11-11.29-.71-8.74-14.1-13.78-15.84-23.39-15.84C18.87,4.63,8.96,35.08.29,52.66c-.92,1.87.44,4.05,2.52,4.05h105.76c1.92,0,3.28-1.88,2.67-3.7-2.04-6.09-6.13-17.41-7.06-19.39Z"/>
      <g>
        <path class="cls-2" d="M44.77,50.15h-19.84v-3.04h1.63l.86-1.7-1.97-.84v-2.75c0-.45-.22-.69-.69-.69h-1.55v-3.06h5.06v4.74l2.86,1.29-1.46,3.02h15.1v3.04ZM26.71,35.02l-1.58-1.53,1.58-1.56,1.6,1.56-1.6,1.53ZM40.04,33.25c-.22,0-.32.12-.32.34l-.03.93h3.63v11.52h-10.12v-11.52h2.96c.22,0,.34-.12.34-.36v-.91h-4.91v-2.54h13v2.54h-4.56ZM34.16,30.11l-.94-.91.94-.89.94.89-.94.91ZM39.81,37.15h-3.82v6.51h3.13c.47,0,.69-.24.69-.69v-5.82ZM38.68,39.74h-1.5v-1.34h1.53l-.03,1.34ZM38.68,42.3h-1.5v-1.36h1.53l-.03,1.36ZM42.21,30.19l-.91-.91.91-.89.94.89-.94.91Z"/>
        <path class="cls-2" d="M60.39,45.39l-2.09-2.16c.93-.88,1.38-1.87,1.36-2.93-.02-.88-.45-1.55-1.28-2.04-.69-.39-1.52-.57-2.49-.55-.93.02-1.74.24-2.41.63-.81.49-1.2,1.16-1.16,2,0,.35.12.65.37.86.22.24.53.33.89.29.93-.04,1.48-.96,1.6-2.75l3.12.22c-.26,3.52-1.82,5.31-4.64,5.4-1.13.04-2.09-.29-2.88-1.02-.77-.73-1.18-1.63-1.22-2.73-.06-1.69.55-3.07,1.87-4.11,1.2-.96,2.7-1.47,4.48-1.53,1.82-.04,3.38.37,4.68,1.24,1.44.96,2.17,2.3,2.21,4.01.06,2.14-.75,3.85-2.41,5.17Z"/>
        <path class="cls-2" d="M68.76,48.48l-1.04-1.01,1.04-1.01,1.04,1.01-1.04,1.01ZM79.2,32.25h-2.22c-.47,0-.71.24-.71.69v.74h2.37v2.56h-2.37v1.53h2.52v2.49h-2.52v.98c0,.22.12.33.35.33h2.37v9.03h-4.47v-2.39h1.18v-2.59c0-.29-.1-.53-.32-.72-.2-.19-.44-.29-.74-.29l-6.09.02v-15.32l10.66.02v2.9ZM71.16,47.16l-1.04-1.01,1.04-1.01,1.04,1.01-1.04,1.01ZM71.2,50.11l-1.06-1.08,1.06-1.03,1.04,1.03-1.04,1.08ZM73.47,32.05h-1.5v1.27c0,.24.12.36.34.36h1.16v-1.63ZM73.47,36.39c0-.24-.12-.36-.34-.36h-1.16v1.87h1.5v-1.51ZM73.47,40.27h-1.16c-.22,0-.34.12-.34.36v1.22h1.5v-1.58ZM73.43,48.45l-1.04-1.01,1.04-1.01,1.06,1.01-1.06,1.01ZM85.54,42.11v7.16h-3.85v-16.81h9.18v9.65h-5.33ZM88.08,36.24l-2.54.02v3.14h1.48c.29,0,.54-.1.74-.31.22-.19.32-.43.32-.72v-2.13ZM89.09,49.39l-2.12-4.74,2.59-1.08,2.07,4.74-2.54,1.08Z"/>
      </g>
    </g>
  </g>
</svg>